<svg width="55" height="38" viewBox="0 0 55 38" fill="none" xmlns="http://www.w3.org/2000/svg">
<path d="M2 18.3144C1.34954 18.3144 0.82223 18.8417 0.82223 19.4922C0.82223 20.1427 1.34954 20.67 2 20.67V18.3144ZM16.1332 20.67H17.311V18.3144H16.1332V20.67ZM2 20.67H16.1332V18.3144H2V20.67Z" fill="white"/>
<path fill-rule="evenodd" clip-rule="evenodd" d="M36.0715 37.9999C46.5254 37.9999 54.9999 29.5253 54.9999 19.0714C54.9999 8.61753 46.5254 0.142974 36.0715 0.142974C25.8711 0.142974 17.5552 8.21148 17.1579 18.3145L35.7517 18.3145L30.267 12.8298C29.8071 12.3698 29.8071 11.6241 30.267 11.1641C30.727 10.7042 31.4727 10.7042 31.9327 11.1641L39.4279 18.6594C39.8879 19.1194 39.8879 19.8651 39.4279 20.325L31.9327 27.8203C31.4727 28.2803 30.727 28.2803 30.267 27.8203C29.8071 27.3604 29.8071 26.6147 30.267 26.1547L35.7517 20.67L17.2096 20.67C18.0212 30.3758 26.156 37.9999 36.0715 37.9999Z" fill="white"/>
</svg>
