<svg width="28" height="29" viewBox="0 0 28 29" fill="none" xmlns="http://www.w3.org/2000/svg">
<path d="M13.9239 0.493164C6.24596 0.493164 0 6.73912 0 14.4171C0 22.095 6.24596 28.341 13.9239 28.341C21.6019 28.341 27.8478 22.095 27.8478 14.4171C27.8478 6.73912 21.6019 0.493164 13.9239 0.493164ZM20.5459 21.6191C20.3197 21.8454 20.0226 21.9593 19.7256 21.9593C19.4286 21.9593 19.1314 21.8454 18.9053 21.6191L13.1036 15.8176C12.8854 15.6007 12.7637 15.3058 12.7637 14.9973V7.45512C12.7637 6.81349 13.2833 6.29487 13.9239 6.29487C14.5645 6.29487 15.0842 6.81349 15.0842 7.45512V14.5169L20.5459 19.9785C20.9995 20.4323 20.9995 21.1655 20.5459 21.6191V21.6191Z" fill="white"/>
</svg>
