<svg width="31" height="18" viewBox="0 0 31 18" fill="none" xmlns="http://www.w3.org/2000/svg">
<path d="M25.006 10.0803C24.5188 9.46499 24.6582 9.19127 25.006 8.6413C25.0123 8.63502 29.0341 3.07757 29.4485 1.19286L29.451 1.1916C29.6569 0.504766 29.451 0 28.4552 0H25.1605C24.3217 0 23.935 0.433195 23.7278 0.917871C23.7278 0.917871 22.0502 4.9334 19.6771 7.53633C18.9111 8.28846 18.5571 8.52954 18.1389 8.52954C17.933 8.52954 17.6128 8.28846 17.6128 7.60163V1.1916C17.6128 0.367902 17.378 0 16.6837 0H11.5029C10.9768 0 10.6641 0.384225 10.6641 0.742082C10.6641 1.52309 11.8507 1.70264 11.9738 3.90001V8.66766C11.9738 9.71235 11.7842 9.90447 11.3635 9.90447C10.2435 9.90447 7.52503 5.87262 5.91405 1.25815C5.58884 0.362879 5.27116 0.00125555 4.42612 0.00125555H1.13007C0.189601 0.00125555 0 0.43445 0 0.919126C0 1.77547 1.12003 6.03334 5.20838 11.6586C7.93312 15.4983 11.7703 17.5789 15.261 17.5789C17.3592 17.5789 17.6153 17.1168 17.6153 16.322C17.6153 12.6531 17.4257 12.3065 18.4767 12.3065C18.9639 12.3065 19.8027 12.5476 21.7614 14.3996C24.0002 16.5958 24.3682 17.5789 25.6213 17.5789H28.9161C29.8553 17.5789 30.3312 17.1168 30.0574 16.2053C29.4309 14.2879 25.1969 10.3439 25.006 10.0803Z" fill="white"/>
</svg>
