<svg width="23" height="30" viewBox="0 0 23 30" fill="none" xmlns="http://www.w3.org/2000/svg">
<path d="M11.3006 0C7.26923 0 3.95459 3.26985 3.95459 7.34597C3.95459 11.4221 7.22444 14.6919 11.3006 14.6919C15.3767 14.6919 18.6465 11.4221 18.6465 7.34597C18.6465 3.26985 15.3767 0 11.3006 0ZM11.3006 10.9966C9.2625 10.9966 7.62757 9.36163 7.62757 7.32357C7.62757 5.28551 9.2625 3.67298 11.3006 3.67298C13.3386 3.67298 14.9735 5.30791 14.9735 7.34597C14.9735 9.36163 13.3386 10.9966 11.3006 10.9966Z" fill="white"/>
<path d="M22.1188 15.7894C21.4693 14.58 19.9464 14.1545 18.737 14.8488C13.7426 17.6483 8.88263 17.6483 3.88827 14.8488C2.67887 14.1545 1.15593 14.6024 0.461645 15.8342C-0.232638 17.0212 0.215286 18.5665 1.44708 19.216C3.08201 20.1567 4.82891 20.851 6.64301 21.3661L3.1044 24.9047C2.11897 25.8901 2.11897 27.4578 3.1044 28.3985C4.04504 29.3839 5.61278 29.3839 6.59822 28.3985L11.3014 23.6953L16.0046 28.3985C16.9453 29.3839 18.513 29.3839 19.4985 28.3985C20.4839 27.4131 20.4839 25.8453 19.4985 24.9047L15.9598 21.3661C17.7739 20.8957 19.5208 20.1567 21.1558 19.216C22.3652 18.5217 22.8131 17.0212 22.1188 15.7894C22.1188 15.8342 22.1188 15.8342 22.1188 15.7894Z" fill="white"/>
</svg>
