<svg width="35" height="35" viewBox="0 0 35 35" fill="none" xmlns="http://www.w3.org/2000/svg">
<path d="M24.2486 18.5938H10.7507C10.5589 18.5938 10.4039 18.7518 10.4088 18.9435C10.4496 20.5258 10.5568 22.0373 10.7198 23.4665C10.7433 23.6721 10.9419 23.811 11.1424 23.7599C13.2061 23.2342 15.3327 22.9687 17.4997 22.9687C19.6666 22.9687 21.7932 23.2342 23.8569 23.7599C24.0574 23.811 24.256 23.6721 24.2795 23.4665C24.4425 22.0372 24.5497 20.5257 24.5905 18.9435C24.5954 18.7518 24.4405 18.5938 24.2486 18.5938Z" fill="white"/>
<path d="M24.2795 11.5336C24.256 11.3279 24.0574 11.189 23.8569 11.2401C21.7932 11.7659 19.6666 12.0314 17.4997 12.0314C15.3327 12.0314 13.2061 11.7659 11.1424 11.2402C10.9419 11.1891 10.7433 11.328 10.7198 11.5336C10.5568 12.9629 10.4496 14.4744 10.4088 16.0566C10.4039 16.2484 10.5588 16.4064 10.7507 16.4064H24.2486C24.4404 16.4064 24.5954 16.2483 24.5904 16.0566C24.5497 14.4743 24.4424 12.9628 24.2795 11.5336Z" fill="white"/>
<path d="M23.8572 8.64883C23.2447 5.25991 22.3059 2.48063 21.2224 0.516523C21.1741 0.429023 21.0895 0.367295 20.9915 0.347539C19.8544 0.118398 18.6863 0 17.4999 0C16.3134 0 15.1454 0.118398 14.0082 0.347607C13.9102 0.367363 13.8256 0.429092 13.7774 0.516592C12.6939 2.48063 11.7551 5.25991 11.1426 8.6489C11.1112 8.82239 11.2179 8.99233 11.3881 9.0382C13.3377 9.56334 15.3867 9.84375 17.4999 9.84375C19.6131 9.84375 21.662 9.56334 23.6116 9.03813C23.7818 8.99233 23.8885 8.82232 23.8572 8.64883Z" fill="white"/>
<path d="M24.774 1.57472C24.4955 1.44737 24.2053 1.72546 24.3154 2.0112C24.3173 2.01626 24.3193 2.02132 24.3212 2.02637C24.9865 3.75614 25.527 5.7199 25.9314 7.84362C25.9718 8.05588 26.1978 8.17681 26.3977 8.09477C27.7431 7.54264 29.0263 6.86895 30.2338 6.08802C30.4127 5.97242 30.4448 5.72311 30.2997 5.56725C30.1608 5.41803 30.0191 5.27078 29.8742 5.12586C28.3736 3.62516 26.6481 2.43154 24.774 1.57472Z" fill="white"/>
<path d="M27.1202 16.4064H34.5975C34.7979 16.4064 34.955 16.2347 34.9385 16.035C34.6968 13.1011 33.7313 10.3155 32.1281 7.88676C32.0232 7.72783 31.8102 7.68483 31.6514 7.78976C30.3452 8.65266 28.9607 9.39539 27.505 10.011C27.2064 10.1374 26.9061 10.2576 26.604 10.3721C26.4558 10.4283 26.3653 10.5774 26.385 10.7347C26.6002 12.4504 26.7335 14.2402 26.779 16.0723C26.7836 16.258 26.9346 16.4064 27.1202 16.4064Z" fill="white"/>
<path d="M11.1426 26.3512C11.7551 29.7401 12.6939 32.5194 13.7774 34.4835C13.8256 34.571 13.9102 34.6327 14.0082 34.6525C15.1454 34.8816 16.3134 35 17.4999 35C18.6863 35 19.8544 34.8816 20.9915 34.6524C21.0895 34.6326 21.1741 34.5709 21.2224 34.4834C22.3059 32.5194 23.2447 29.7401 23.8572 26.3511C23.8885 26.1776 23.7818 26.0077 23.6116 25.9618C21.662 25.4367 19.6131 25.1562 17.4999 25.1562C15.3867 25.1562 13.3377 25.4367 11.3881 25.9619C11.2179 26.0077 11.1112 26.1777 11.1426 26.3512Z" fill="white"/>
<path d="M7.49471 24.9891C7.7933 24.8628 8.09368 24.7425 8.39569 24.628C8.54389 24.5718 8.63447 24.4227 8.61471 24.2654C8.39952 22.5497 8.26622 20.7599 8.22069 18.9278C8.21604 18.7422 8.06517 18.5938 7.87951 18.5938H0.402223C0.201793 18.5938 0.0447716 18.7655 0.0612462 18.9652C0.302897 21.8991 1.26847 24.6847 2.87164 27.1134C2.9765 27.2723 3.18951 27.3154 3.34837 27.2104C4.65452 26.3475 6.03907 25.6047 7.49471 24.9891Z" fill="white"/>
<path d="M30.2338 28.912C29.0263 28.1311 27.7431 27.4573 26.3977 26.9053C26.1978 26.8232 25.9718 26.9442 25.9314 27.1564C25.527 29.2801 24.9866 31.2439 24.3212 32.9737C24.3193 32.9787 24.3173 32.9838 24.3154 32.9888C24.2053 33.2746 24.4955 33.5527 24.774 33.4253C26.6481 32.5685 28.3736 31.3749 29.8743 29.8742C30.0192 29.7293 30.1609 29.582 30.2998 29.4328C30.4448 29.2769 30.4126 29.0276 30.2338 28.912Z" fill="white"/>
<path d="M26.779 18.9278C26.7335 20.7599 26.6001 22.5497 26.385 24.2654C26.3653 24.4227 26.4558 24.5718 26.604 24.628C26.9061 24.7425 27.2064 24.8627 27.505 24.9891C28.9607 25.6048 30.3452 26.3475 31.6514 27.2103C31.8102 27.3153 32.0232 27.2722 32.1281 27.1133C33.7313 24.6847 34.6968 21.8991 34.9385 18.9651C34.955 18.7653 34.7979 18.5937 34.5975 18.5937H27.1202C26.9346 18.5938 26.7836 18.7422 26.779 18.9278Z" fill="white"/>
<path d="M4.76605 6.08753C5.97362 6.86846 7.2568 7.54221 8.60225 8.09428C8.80213 8.17632 9.02813 8.05539 9.06853 7.84313C9.47294 5.71941 10.0133 3.75565 10.6787 2.02589C10.6806 2.02083 10.6826 2.01577 10.6845 2.01071C10.7946 1.72497 10.5044 1.44688 10.2259 1.57424C8.35192 2.43112 6.62632 3.62474 5.12562 5.12537C4.9807 5.27029 4.83899 5.41754 4.70009 5.56676C4.5551 5.72262 4.58729 5.97193 4.76605 6.08753Z" fill="white"/>
<path d="M8.21337 16.4064C8.25036 14.4578 8.38653 12.5545 8.61471 10.7347C8.63447 10.5774 8.54389 10.4283 8.39569 10.3721C8.09368 10.2576 7.7933 10.1373 7.49471 10.011C6.03907 9.3953 4.65452 8.65258 3.34837 7.78974C3.18951 7.68481 2.97657 7.72788 2.87164 7.88675C1.26847 10.3155 0.302897 13.1011 0.0612462 16.035C0.0447716 16.2347 0.201793 16.4064 0.402223 16.4064H8.21337Z" fill="white"/>
<path d="M10.2259 33.4253C10.5044 33.5527 10.7946 33.2746 10.6845 32.9888C10.6826 32.9838 10.6806 32.9787 10.6787 32.9737C10.0134 31.2439 9.47295 29.2801 9.06854 27.1564C9.02814 26.9442 8.80214 26.8232 8.60226 26.9053C7.25681 27.4574 5.97363 28.1311 4.76606 28.912C4.58723 29.0276 4.5551 29.2769 4.70016 29.4328C4.83907 29.582 4.98078 29.7293 5.1257 29.8742C6.62626 31.3749 8.35186 32.5685 10.2259 33.4253Z" fill="white"/>
</svg>
