<svg width="60" height="60" viewBox="0 0 60 60" fill="none" xmlns="http://www.w3.org/2000/svg">
<path fill-rule="evenodd" clip-rule="evenodd" d="M30 60C13.4315 60 0 46.5685 0 30C0 13.4315 13.4315 0 30 0C46.5685 0 60 13.4315 60 30C60 46.5685 46.5685 60 30 60ZM33.1279 17.6437C34.0727 16.6989 35.6045 16.6989 36.5494 17.6437C37.4942 18.5886 37.4942 20.1204 36.5494 21.0652L26.6472 30.9674L36.5494 40.8696C37.4942 41.8144 37.4942 43.3462 36.5494 44.291C35.6045 45.2359 34.0727 45.2359 33.1279 44.291L21.515 32.6781L19.8042 30.9674L21.515 29.2567L33.1279 17.6437Z" fill="#4E4F53"/>
</svg>
