<svg width="28" height="28" viewBox="0 0 28 28" fill="none" xmlns="http://www.w3.org/2000/svg">
<g clip-path="url(#clip0_42_51)">
<path d="M13.8697 0.546265C9.14645 0.546265 5.20703 4.35101 5.20703 9.20893C5.20703 11.0571 5.76239 12.7051 6.82821 14.2494L13.2068 24.2025C13.5162 24.6863 14.2238 24.6854 14.5326 24.2025L20.9389 14.2155C21.9817 12.7412 22.5324 11.0101 22.5324 9.20893C22.5324 4.43234 18.6463 0.546265 13.8697 0.546265ZM13.8697 13.1465C11.6986 13.1465 9.93212 11.38 9.93212 9.20893C9.93212 7.03786 11.6986 5.27136 13.8697 5.27136C16.0408 5.27136 17.8073 7.03786 17.8073 9.20893C17.8073 11.38 16.0408 13.1465 13.8697 13.1465Z" fill="white"/>
<path d="M20.0259 18.6439L16.0604 24.8436C15.034 26.4439 12.6991 26.4387 11.6776 24.8451L7.70565 18.6455C4.21097 19.4535 2.05664 20.9337 2.05664 22.7025C2.05664 25.7718 8.14298 27.4276 13.8694 27.4276C19.5958 27.4276 25.6821 25.7718 25.6821 22.7025C25.6821 20.9324 23.5248 19.4515 20.0259 18.6439Z" fill="white"/>
</g>
<defs>
<clipPath id="clip0_42_51">
<rect width="26.8805" height="26.8805" fill="white" transform="translate(0.429199 0.546265)"/>
</clipPath>
</defs>
</svg>
