<?xml version="1.0" encoding="utf-8"?>
<!-- Generator: Adobe Illustrator 23.0.1, SVG Export Plug-In . SVG Version: 6.00 Build 0)  -->
<svg version="1.1" id="Ассоциация" xmlns="http://www.w3.org/2000/svg" xmlns:xlink="http://www.w3.org/1999/xlink"
	 x="0px" y="0px" viewBox="0 0 2190.6 675.2" style="enable-background:new 0 0 2190.6 675.2;" xml:space="preserve">
<style type="text/css">
	.st0{fill:#ED1C24;}
	.st1{fill:#9F1D21;}
</style>
<path id="шапка" d="M350.1,137.1l122.3,45.4l-121.9,44.4l-121.4-44.9L350.1,137.1 M350.1,75.2L62.5,182.3l288,106.4l198.3-72.3
	v17.3l51.9-17.5v-19l37.7-14.9L350.1,75.2L350.1,75.2z"/>
<g id="в">
	<polygon class="st0" points="215.7,254.7 156.7,233.6 308.7,603.5 327.4,603.5 359,603.5 377.9,603.5 239.4,263.2 	"/>
	<polygon class="st0" points="526,241.7 465.9,263.2 352.7,541.5 377.9,603.5 396.6,603.5 548.6,233.6 	"/>
</g>
<g id="тень_1">
	<polygon class="st1" points="352.7,541.5 343.1,564.9 215.7,254.7 239.4,263.2 	"/>
</g>
<g id="тень_2">
	<polygon class="st1" points="548.6,233.6 396.6,603.5 378.8,603.5 526,241.7 	"/>
</g>
<g id="текст">
	<path class="st0" d="M718.4,184.5h18.9l31.9,113.8h-16.8l-6.9-26H710l-6.7,26h-16.8L718.4,184.5z M742,258.3l-7.4-28
		c-2.5-9.6-4.9-19.4-6.5-28h-0.7c-1.7,8.6-4.2,18.4-6.5,28l-7.2,28H742z"/>
	<path class="st0" d="M775.1,266.5v-49.9c0-24.6,10.4-34.1,35.5-34.1c25.3,0,35.7,9.6,35.7,34.1v4.6h-16.1v-4.6
		c0-15.3-4.7-19.8-19.6-19.8c-14.8,0-19.3,4.6-19.3,19.8v49.9c0,15.3,4.5,19.7,19.6,19.7c15.1,0,19.6-4.4,19.6-19.7v-5.9h16.1v5.9
		c0,24.4-10.4,34-35.7,34C785.3,300.4,775.1,290.8,775.1,266.5z"/>
	<path class="st0" d="M859.4,266.5v-49.9c0-24.6,10.4-34.1,35.5-34.1c25.3,0,35.7,9.6,35.7,34.1v4.6h-16.1v-4.6
		c0-15.3-4.7-19.8-19.6-19.8c-14.8,0-19.3,4.6-19.3,19.8v49.9c0,15.3,4.5,19.7,19.6,19.7c15.1,0,19.6-4.4,19.6-19.7v-5.9H931v5.9
		c0,24.4-10.4,34-35.7,34C869.6,300.4,859.4,290.8,859.4,266.5z"/>
	<path class="st0" d="M943.7,266.5v-49.9c0-24.6,10.4-34.1,36.6-34.1c26.3,0,36.6,9.6,36.6,34.1v49.9c0,24.4-10.2,34-36.6,34
		C954.1,300.4,943.7,290.8,943.7,266.5z M980.3,286.1c15.9,0,20.5-4.4,20.5-19.7v-49.9c0-15.3-4.5-19.8-20.5-19.8
		c-15.8,0-20.3,4.6-20.3,19.8v49.9C960,281.7,964.5,286.1,980.3,286.1z"/>
	<path class="st0" d="M1098.7,298.3h-63.4V184.5h16.3v99.4h36.4v-99.4h16.3v99.4h10.1v35.8h-15.6V298.3z"/>
	<path class="st0" d="M1128,184.5h15.9v46.2c0,12.4-0.7,23.6-1.7,39h0.7l40.9-85.2h15.9v113.8H1184V252c0-12.4,0.5-23.4,1.7-38.9
		h-0.7l-41.1,85.2H1128V184.5z"/>
	<path class="st0" d="M1241,184.5h18.9l31.9,113.8h-16.8l-6.9-26h-35.5l-6.7,26h-16.8L1241,184.5z M1264.7,258.3l-7.4-28
		c-2.5-9.6-4.9-19.4-6.5-28h-0.7c-1.7,8.6-4.2,18.4-6.5,28l-7.2,28H1264.7z"/>
	<path class="st0" d="M1364.5,298.3h-63.4V184.5h16.3v99.4h36.4v-99.4h16.3v99.4h10.1v35.8h-15.6V298.3z"/>
	<path class="st0" d="M1393.8,184.5h15.9v46.2c0,12.4-0.7,23.6-1.7,39h0.7l40.9-85.2h15.9v113.8h-15.8V252c0-12.4,0.5-23.4,1.7-38.9
		h-0.7l-41.1,85.2h-15.9V184.5z"/>
	<path class="st0" d="M1536.3,251h-17.4h-0.3l-22.6,47.3h-18.3l24.6-49.3c-13.2-3.9-18.4-13.8-18.4-31.4c0-24.1,9.1-33.2,35.5-33.2
		h33v113.8h-16.1V251z M1518.7,236.9h17.6v-38.2h-17.1c-15.8,0-19.5,4.1-19.5,19C1499.8,232.8,1503.5,236.9,1518.7,236.9z"/>
	<path d="M695.7,420v-49.9c0-24.6,10.4-34.1,35.5-34.1c25.3,0,35.7,9.6,35.7,34.1v4.6h-16.1v-4.6c0-15.3-4.7-19.8-19.6-19.8
		c-14.8,0-19.3,4.6-19.3,19.8V420c0,15.3,4.5,19.7,19.6,19.7c15.1,0,19.6-4.4,19.6-19.7v-5.9h16.1v5.9c0,24.4-10.4,34-35.7,34
		C706,454,695.7,444.4,695.7,420z"/>
	<path d="M782.8,338h70.4v113.8h-16.3v-99.4H799v99.4h-16.3V338z"/>
	<path d="M871.6,420v-49.9c0-24.6,10.4-34.1,36.6-34.1c26.3,0,36.6,9.6,36.6,34.1V420c0,24.4-10.2,34-36.6,34
		C882,454,871.6,444.4,871.6,420z M908.2,439.7c15.9,0,20.5-4.4,20.5-19.7v-49.9c0-15.3-4.5-19.8-20.5-19.8
		c-15.8,0-20.3,4.6-20.3,19.8V420C887.9,435.3,892.4,439.7,908.2,439.7z"/>
	<path d="M963.2,338h31.7c26.7,0,35.7,9.1,35.7,34.8c0,25.9-9.4,35.1-35.2,35.1h-15.9v43.9h-16.3V338z M995.7,393.5
		c15.1,0,18.9-4.1,18.9-20.7c0-16.4-3.9-20.5-19.5-20.5h-15.8v41.1H995.7z"/>
	<path d="M1060.6,352.5h-28.5V338h73.3v14.5h-28.5v99.4h-16.3V352.5z"/>
	<path d="M1114.8,338h15.9v46.2c0,12.4-0.7,23.6-1.7,39h0.7l40.9-85.2h15.9v113.8h-15.8v-46.3c0-12.4,0.5-23.4,1.7-38.9h-0.7
		l-41.1,85.2h-15.9V338z"/>
	<path d="M1207.8,338h32.7c23.1,0,32.5,9.1,32.5,29.8c0,13-3.9,20.3-12.6,24.2c11.4,3.4,17.1,11.9,17.1,28.6
		c0,22.3-9.7,31.2-35.5,31.2h-34.2V338z M1241.5,387c11.7,0,15.8-4.4,15.8-17.7c0-13.3-4-17.4-16.4-17.4h-16.9V387H1241.5z
		 M1242.2,438c15.3,0,19.6-4.1,19.6-18.7c0-14.6-4.5-18.9-19.1-18.9h-18.8V438H1242.2z"/>
	<path d="M1346.2,400.5h-37.9v51.4H1292V338h16.3v48h37.9v-48h16.3v113.8h-16.3V400.5z"/>
	<path d="M1383.6,338h16.3v42.3h15.1c26,0,35.4,9.4,35.4,35.9c0,26.3-9.2,35.6-35.9,35.6h-30.9V338z M1414.6,437.5
		c15.9,0,19.6-4.1,19.6-21.3c0-17.4-3.7-21.6-19.1-21.6h-15.3v42.9H1414.6z M1469.4,338h16.3v113.8h-16.3V338z"/>
	<path d="M1523.1,392.3l-25.7-54.3h17.9l19.1,43.3h0.7l19.5-43.3h17.6l-25.7,54l27.8,59.8h-17.8l-21.6-48.5h-0.5l-21.3,48.5h-17.8
		L1523.1,392.3z"/>
	<path d="M698.4,491.5h32.7c23.1,0,32.5,9.1,32.5,29.8c0,13-3.9,20.3-12.6,24.2c11.4,3.4,17.1,11.9,17.1,28.6
		c0,22.3-9.7,31.2-35.5,31.2h-34.2V491.5z M732.1,540.5c11.7,0,15.8-4.4,15.8-17.7c0-13.3-4-17.4-16.4-17.4h-16.9v35.1H732.1z
		 M732.8,591.5c15.3,0,19.6-4.1,19.6-18.7c0-14.6-4.5-18.9-19.1-18.9h-18.8v37.6H732.8z"/>
	<path d="M781.6,591.1h8.9c7.7,0,10.4-2.1,13.1-9.9l1.2-3.9l-34.4-85.7H788l16.4,43.3c3,7.8,5.4,14.6,7.5,21.8h0.5
		c1.7-7,3.9-14,6-21.8l13.1-43.3h17.1L818,584.9c-5.2,15.6-12.1,20.8-27.3,20.8h-9.1V591.1z"/>
	<path d="M849,573.7v-2.9h15.8v2.9c0,15.3,4.5,19.8,20,19.8c15.4,0,19.8-4.7,19.8-20c0-15-4.9-19.5-18.9-19.5h-12.9v-13.3h12.6
		c12.9,0,16.9-5.2,16.9-18.5c0-14.5-4.9-18.7-17.8-18.7c-14.1,0-18.3,5-18.3,18.5v3.1h-15.8v-3.1c0-22.4,9.7-32.5,34.2-32.5
		c23.8,0,33.4,10.1,33.4,31.9c0,13.7-4.4,20.8-13.1,25.2c9.7,3.9,15.4,11.1,15.4,27.6c0,23.9-9.9,33.3-35.5,33.3
		C859.2,607.5,849,598,849,573.7z"/>
	<path d="M932.2,573.5v-49.9c0-24.6,10.4-34.1,36.6-34.1c26.3,0,36.6,9.6,36.6,34.1v49.9c0,24.4-10.2,34-36.6,34
		C942.6,607.5,932.2,597.9,932.2,573.5z M968.7,593.2c15.9,0,20.5-4.4,20.5-19.7v-49.9c0-15.3-4.5-19.8-20.5-19.8
		c-15.8,0-20.3,4.6-20.3,19.8v49.9C948.4,588.8,953,593.2,968.7,593.2z"/>
	<path d="M1023.7,491.5h32.7c23.1,0,32.5,9.1,32.5,29.8c0,13-3.9,20.3-12.6,24.2c11.4,3.4,17.1,11.9,17.1,28.6
		c0,22.3-9.7,31.2-35.5,31.2h-34.2V491.5z M1057.4,540.5c11.7,0,15.8-4.4,15.8-17.7c0-13.3-4-17.4-16.4-17.4h-16.9v35.1H1057.4z
		 M1058.1,591.5c15.3,0,19.6-4.1,19.6-18.7c0-14.6-4.5-18.9-19.1-18.9h-18.8v37.6H1058.1z"/>
	<path d="M1136.6,491.5h31.7c26.7,0,35.7,9.1,35.7,34.8c0,25.9-9.4,35.1-35.2,35.1h-15.9v43.9h-16.3V491.5z M1169.1,547
		c15.1,0,18.9-4.1,18.9-20.7c0-16.4-3.9-20.5-19.5-20.5h-15.8V547H1169.1z"/>
	<path d="M1214.5,573.5v-49.9c0-24.6,10.4-34.1,36.6-34.1c26.3,0,36.6,9.6,36.6,34.1v49.9c0,24.4-10.2,34-36.6,34
		C1224.9,607.5,1214.5,597.9,1214.5,573.5z M1251.1,593.2c15.9,0,20.5-4.4,20.5-19.7v-49.9c0-15.3-4.5-19.8-20.5-19.8
		c-15.8,0-20.3,4.6-20.3,19.8v49.9C1230.8,588.8,1235.3,593.2,1251.1,593.2z"/>
	<path d="M1303.4,573.5v-49.9c0-24.6,10.4-34.1,35.5-34.1c25.3,0,35.7,9.6,35.7,34.1v4.6h-16.1v-4.6c0-15.3-4.7-19.8-19.6-19.8
		c-14.8,0-19.3,4.6-19.3,19.8v49.9c0,15.3,4.5,19.7,19.6,19.7s19.6-4.4,19.6-19.7v-5.9h16.1v5.9c0,24.4-10.4,34-35.7,34
		C1313.6,607.5,1303.4,597.9,1303.4,573.5z"/>
	<path d="M1387.8,573.5v-49.9c0-24.6,10.4-34.1,35.5-34.1c25.3,0,35.7,9.6,35.7,34.1v4.6h-16.1v-4.6c0-15.3-4.7-19.8-19.6-19.8
		c-14.8,0-19.3,4.6-19.3,19.8v49.9c0,15.3,4.5,19.7,19.6,19.7c15.1,0,19.6-4.4,19.6-19.7v-5.9h16.1v5.9c0,24.4-10.4,34-35.7,34
		C1398,607.5,1387.8,597.9,1387.8,573.5z"/>
	<path d="M1474.8,491.5h15.9v46.2c0,12.4-0.7,23.6-1.7,39h0.7l40.9-85.2h15.9v113.8h-15.8V559c0-12.4,0.5-23.4,1.7-38.9h-0.7
		l-41.1,85.2h-15.9V491.5z"/>
	<path d="M1567.8,491.5h15.9v46.2c0,12.4-0.7,23.6-1.7,39h0.7l40.9-85.2h15.9v113.8h-15.8V559c0-12.4,0.5-23.4,1.7-38.9h-0.7
		l-41.1,85.2h-15.9V491.5z"/>
</g>
</svg>
