<svg width="22" height="22" viewBox="0 0 22 22" fill="none" xmlns="http://www.w3.org/2000/svg">
<path d="M21.5492 0.233533C21.3887 0.0916754 21.1761 0.0235538 20.963 0.0456568L7.38286 1.55454C7.00061 1.59685 6.71137 1.91991 6.71142 2.30446V15.7496C6.02764 15.3404 5.24492 15.1262 4.44806 15.1301C2.36803 15.1302 0.675781 16.4837 0.675781 18.148C0.675781 19.8123 2.36803 21.1658 4.44802 21.1658C6.52801 21.1658 8.22026 19.813 8.22026 18.148V6.75579L20.2915 5.41135V14.2384C19.6075 13.83 18.8248 13.6166 18.0281 13.6213C15.9481 13.6213 14.2559 14.9748 14.2559 16.6391C14.2559 18.3034 15.9481 19.6569 18.0281 19.6569C20.1081 19.6569 21.8004 18.3041 21.8004 16.6391V0.795613C21.8004 0.581037 21.709 0.376628 21.5492 0.233533Z" fill="#DA291C"/>
</svg>
