<svg width="27" height="27" viewBox="0 0 27 27" fill="none" xmlns="http://www.w3.org/2000/svg">
<path d="M24.7535 17.4902C23.1621 17.4902 21.5996 17.2413 20.1189 16.752C19.3933 16.5045 18.5014 16.7315 18.0586 17.1863L15.136 19.3926C11.7466 17.5833 9.65885 15.4962 7.87431 12.1323L10.0156 9.28584C10.572 8.73026 10.7715 7.91867 10.5324 7.15718C10.041 5.6687 9.79138 4.10693 9.79138 2.51489C9.79145 1.3648 8.85579 0.429138 7.70576 0.429138H2.93237C1.78234 0.429138 0.84668 1.3648 0.84668 2.51482C0.84668 15.6972 11.5711 26.4215 24.7535 26.4215C25.9035 26.4215 26.8391 25.4859 26.8391 24.3358V19.5758C26.8391 18.4258 25.9034 17.4902 24.7535 17.4902Z" fill="white"/>
</svg>
