<svg width="60" height="60" viewBox="0 0 60 60" fill="none" xmlns="http://www.w3.org/2000/svg">
<path fill-rule="evenodd" clip-rule="evenodd" d="M30 60C46.5685 60 60 46.5685 60 30C60 13.4315 46.5685 0 30 0C13.4315 0 0 13.4315 0 30C0 46.5685 13.4315 60 30 60ZM26.8721 17.6437C25.9273 16.6989 24.3955 16.6989 23.4506 17.6437C22.5058 18.5886 22.5058 20.1204 23.4506 21.0652L33.3528 30.9674L23.4506 40.8696C22.5058 41.8144 22.5058 43.3462 23.4506 44.291C24.3955 45.2359 25.9273 45.2359 26.8721 44.291L38.485 32.6781L40.1958 30.9674L38.485 29.2567L26.8721 17.6437Z" fill="#4E4F53"/>
</svg>
