<svg width="24" height="24" viewBox="0 0 24 24" fill="none" xmlns="http://www.w3.org/2000/svg">
<path d="M18 9.99999C18.0031 8.19185 17.3936 6.43599 16.2709 5.01868C15.1481 3.60136 13.5783 2.60618 11.8175 2.1954C10.0566 1.78462 8.20856 1.98246 6.57456 2.75667C4.94056 3.53088 3.61702 4.8358 2.81974 6.45866C2.02245 8.08153 1.79844 9.92662 2.18423 11.6931C2.57002 13.4596 3.54285 15.0433 4.94412 16.186C6.34538 17.3288 8.09243 17.9631 9.90043 17.9856C11.7084 18.0081 13.4707 17.4175 14.9 16.31L21.3 22.71L22.71 21.3L16.31 14.9C17.4015 13.4995 17.9961 11.7756 18 9.99999V9.99999ZM10 16C8.81331 16 7.65327 15.6481 6.66658 14.9888C5.67988 14.3295 4.91085 13.3924 4.45672 12.2961C4.0026 11.1997 3.88378 9.99333 4.11529 8.82945C4.3468 7.66556 4.91825 6.59646 5.75736 5.75735C6.59648 4.91823 7.66557 4.34679 8.82946 4.11528C9.99334 3.88376 11.1997 4.00258 12.2961 4.45671C13.3925 4.91084 14.3295 5.67987 14.9888 6.66657C15.6481 7.65326 16 8.8133 16 9.99999C16 11.5913 15.3679 13.1174 14.2426 14.2426C13.1174 15.3678 11.5913 16 10 16Z" fill="white"/>
</svg>
