<svg width="29" height="16" viewBox="0 0 29 16" fill="none" xmlns="http://www.w3.org/2000/svg">
<path d="M24.064 9.17732C23.5951 8.61606 23.7293 8.36636 24.064 7.86467C24.07 7.85895 27.9403 2.78934 28.339 1.07008L28.3415 1.06893C28.5396 0.44239 28.3415 -0.0180664 27.3833 -0.0180664H24.2126C23.4054 -0.0180664 23.0333 0.377101 22.8339 0.819231C22.8339 0.819231 21.2195 4.48226 18.9358 6.85671C18.1987 7.54281 17.858 7.76273 17.4556 7.76273C17.2574 7.76273 16.9493 7.54281 16.9493 6.91627V1.06893C16.9493 0.31754 16.7233 -0.0180664 16.0551 -0.0180664H11.0695C10.5633 -0.0180664 10.2624 0.33243 10.2624 0.658873C10.2624 1.37132 11.4043 1.53511 11.5227 3.53959V7.88873C11.5227 8.84171 11.3402 9.01696 10.9354 9.01696C9.85758 9.01696 7.24154 5.33903 5.69125 1.12964C5.37829 0.312958 5.07258 -0.0169211 4.25938 -0.0169211H1.0875C0.182458 -0.0169211 0 0.378247 0 0.820377C0 1.60155 1.07783 5.48565 5.01217 10.6171C7.63425 14.1198 11.3269 16.0177 14.6861 16.0177C16.7052 16.0177 16.9517 15.5962 16.9517 14.8712C16.9517 11.5243 16.7693 11.2081 17.7806 11.2081C18.2495 11.2081 19.0566 11.4281 20.9416 13.1175C23.0961 15.1209 23.4501 16.0177 24.656 16.0177H27.8267C28.7305 16.0177 29.1885 15.5962 28.9251 14.7646C28.3221 13.0156 24.2476 9.41785 24.064 9.17732Z" fill="#0077FF"/>
</svg>
