<svg width="19" height="11" viewBox="0 0 19 11" fill="none" xmlns="http://www.w3.org/2000/svg">
<path d="M15.766 6.30937C15.4589 5.92351 15.5468 5.75184 15.766 5.40693C15.77 5.40299 18.3057 1.91764 18.567 0.735647L18.5685 0.73486C18.6984 0.304113 18.5685 -0.0124512 17.9408 -0.0124512H15.8634C15.3346 -0.0124512 15.0908 0.259227 14.9601 0.563191C14.9601 0.563191 13.9025 3.08153 12.4062 4.71396C11.9233 5.18565 11.7 5.33685 11.4364 5.33685C11.3066 5.33685 11.1047 5.18565 11.1047 4.75491V0.73486C11.1047 0.218278 10.9567 -0.0124512 10.5189 -0.0124512H7.25246C6.92075 -0.0124512 6.72363 0.228515 6.72363 0.452945C6.72363 0.942753 7.47175 1.05536 7.54933 2.43344V5.42347C7.54933 6.07865 7.42979 6.19913 7.16458 6.19913C6.45842 6.19913 4.74446 3.67056 3.72875 0.776596C3.52371 0.215128 3.32342 -0.0116638 2.79063 -0.0116638H0.7125C0.119542 -0.0116638 0 0.260014 0 0.563978C0 1.10103 0.706167 3.77135 3.28383 7.29923C5.00175 9.70732 7.42108 11.0122 9.62192 11.0122C10.9448 11.0122 11.1063 10.7224 11.1063 10.2239C11.1063 7.92291 10.9868 7.70556 11.6494 7.70556C11.9565 7.70556 12.4854 7.85676 13.7204 9.01828C15.1319 10.3956 15.3639 11.0122 16.154 11.0122H18.2313C18.8235 11.0122 19.1235 10.7224 18.9509 10.1507C18.5559 8.94819 15.8864 6.47474 15.766 6.30937Z" fill="white"/>
</svg>
